<svg height="512" width="512" xmlns="http://www.w3.org/2000/svg"><path d="M245.82 387.172c28.232 0 48.032-4.493 59.4-13.478 11.37-8.985 17.054-20.444 17.054-34.375 0-10.262-2.476-19.06-7.427-26.395-4.952-7.335-11.55-13.752-19.797-19.252-8.248-5.5-17.78-10.448-28.602-14.846-10.82-4.397-21.91-8.616-33.267-12.656-10.998-4.027-21.908-8.517-32.73-13.468-10.82-4.952-20.445-11.002-28.877-18.153-8.43-7.15-15.305-15.767-20.62-25.85-5.315-10.08-7.973-22.457-7.973-37.127 0-26.038 7.79-47.397 23.373-64.075 15.582-16.678 38.22-27.222 67.92-31.63V12.62h45.654v61.6c16.135.74 31.168 2.756 45.1 6.05 13.93 3.297 24.93 6.416 33 9.358l-10.458 42.885c-8.797-3.29-19.793-6.677-32.992-10.163-13.198-3.485-29.7-5.228-49.506-5.228-22 0-38.957 4.216-50.874 12.647-11.917 8.433-17.876 20.353-17.876 35.76 0 8.427 1.743 15.574 5.23 21.443 3.484 5.87 8.525 11.095 15.122 15.677 6.596 4.582 14.387 8.706 23.372 12.37 8.985 3.665 18.978 7.517 29.978 11.556 14.3 5.495 27.868 11.176 40.702 17.045 12.835 5.87 24.11 12.928 33.822 21.175 9.712 8.247 17.503 18.055 23.372 29.424 5.87 11.368 8.803 25.12 8.804 41.255 0 26.028-7.884 47.017-23.65 62.968-15.767 15.95-40.15 25.946-73.147 29.986v70.948h-45.655v-69.304c-25.67-.74-46.57-3.58-62.7-8.527-16.13-4.946-28.228-9.623-36.296-14.032l13.747-41.24c11 5.136 24.2 9.903 39.603 14.3 15.403 4.398 34.468 6.597 57.194 6.597z" font-size="550" letter-spacing="0" word-spacing="0" fill="#222" font-family="Ubuntu"/></svg>