<svg width="32" height="32" viewBox="0 0 32 32" xmlns="http://www.w3.org/2000/svg"><title>Artboard</title><g fill="none" fill-rule="evenodd"><circle fill="#4196CE" cx="16" cy="16" r="16"/><path d="M10.942 6.926c.33-.292.692-.568 1.083-.828.392-.26.815-.486 1.268-.68.453-.193.946-.344 1.48-.453.533-.108 1.106-.163 1.72-.163.84 0 1.607.116 2.3.347.695.23 1.287.56 1.778.99.492.43.872.95 1.14 1.558.27.61.405 1.29.405 2.046 0 .736-.107 1.374-.32 1.912-.212.538-.478 1.005-.8 1.402-.32.396-.67.738-1.047 1.026-.378.288-.736.56-1.076.814-.34.255-.633.505-.878.75-.246.246-.392.525-.44.836l-.34 2.124h-2.45l-.24-2.364c-.01-.048-.014-.088-.014-.12v-.135c0-.426.107-.794.32-1.106.212-.31.476-.606.792-.885.316-.28.66-.548 1.027-.808.367-.26.71-.54 1.032-.842.32-.302.588-.647.8-1.034.213-.387.32-.845.32-1.374 0-.35-.067-.66-.2-.934-.13-.274-.313-.51-.544-.708-.232-.198-.51-.35-.836-.453-.326-.104-.672-.156-1.04-.156-.548 0-1.015.06-1.402.178-.388.118-.713.252-.978.403-.264.153-.488.29-.672.412-.184.123-.347.184-.49.184-.348 0-.603-.146-.763-.44l-.935-1.5zm2.733 17.106c0-.302.057-.588.17-.857.113-.27.27-.5.467-.694.198-.192.432-.348.7-.466.27-.118.56-.177.872-.177.302 0 .588.06.857.177.27.118.5.274.695.467.193.195.35.426.467.695.118.27.177.555.177.857 0 .31-.06.6-.178.864s-.274.493-.467.686c-.194.194-.425.345-.694.453-.268.11-.554.163-.856.163-.31 0-.602-.054-.87-.163-.27-.108-.504-.26-.702-.453-.198-.193-.354-.422-.467-.686-.113-.265-.17-.553-.17-.864z" fill="#FFF"/></g></svg>